<mxfile host="65bd71144e">
    <diagram id="ApXefDYB7oNisbSgUvdr" name="Page-1">
        <mxGraphModel dx="1002" dy="487" grid="1" gridSize="10" guides="1" tooltips="1" connect="1" arrows="1" fold="1" page="1" pageScale="1" pageWidth="850" pageHeight="1100" math="0" shadow="0">
            <root>
                <mxCell id="0"/>
                <mxCell id="1" parent="0"/>
                <mxCell id="2" value="Actor" style="shape=umlActor;verticalLabelPosition=bottom;verticalAlign=top;html=1;outlineConnect=0;" parent="1" vertex="1">
                    <mxGeometry x="290" y="110" width="30" height="60" as="geometry"/>
                </mxCell>
                <mxCell id="3" value="" style="outlineConnect=0;dashed=0;verticalLabelPosition=bottom;verticalAlign=top;align=center;html=1;shape=mxgraph.aws3.user;fillColor=#D2D3D3;gradientColor=none;" parent="1" vertex="1">
                    <mxGeometry x="430" y="70" width="45" height="63" as="geometry"/>
                </mxCell>
                <mxCell id="4" value="" style="sketch=0;outlineConnect=0;fontColor=#232F3E;gradientColor=none;fillColor=#232F3D;strokeColor=none;dashed=0;verticalLabelPosition=bottom;verticalAlign=top;align=center;html=1;fontSize=12;fontStyle=0;aspect=fixed;pointerEvents=1;shape=mxgraph.aws4.user;" parent="1" vertex="1">
                    <mxGeometry x="560" y="80" width="78" height="78" as="geometry"/>
                </mxCell>
                <mxCell id="5" value="" style="rounded=1;whiteSpace=wrap;html=1;arcSize=3;dashed=1;" parent="1" vertex="1">
                    <mxGeometry x="50" y="240" width="450" height="300" as="geometry"/>
                </mxCell>
                <mxCell id="15" style="edgeStyle=none;html=1;" edge="1" parent="1" source="7" target="8">
                    <mxGeometry relative="1" as="geometry"/>
                </mxCell>
                <mxCell id="17" value="&lt;div&gt;API Calls&lt;/div&gt;[HTTP/HTTPS]" style="edgeLabel;html=1;align=center;verticalAlign=middle;resizable=0;points=[];" vertex="1" connectable="0" parent="15">
                    <mxGeometry x="0.03" y="2" relative="1" as="geometry">
                        <mxPoint x="-2" y="-1" as="offset"/>
                    </mxGeometry>
                </mxCell>
                <mxCell id="7" value="&lt;b&gt;Single Web UI&lt;/b&gt;&lt;div&gt;[React(Typescript)]&lt;br&gt;&lt;br&gt;&lt;/div&gt;&lt;div&gt;提供使用者社交系統，前端網頁互動式操作介面&lt;/div&gt;" style="rounded=1;whiteSpace=wrap;html=1;arcSize=8;" parent="1" vertex="1">
                    <mxGeometry x="290" y="290" width="180" height="90" as="geometry"/>
                </mxCell>
                <mxCell id="12" style="edgeStyle=none;html=1;entryX=0;entryY=0.5;entryDx=0;entryDy=0;" parent="1" source="8" target="11" edge="1">
                    <mxGeometry relative="1" as="geometry"/>
                </mxCell>
                <mxCell id="13" value="&lt;div&gt;API Calls&lt;/div&gt;[HTTP/HTTPS]" style="edgeLabel;html=1;align=center;verticalAlign=middle;resizable=0;points=[];" parent="12" vertex="1" connectable="0">
                    <mxGeometry x="-0.1859" y="-1" relative="1" as="geometry">
                        <mxPoint x="5" y="14" as="offset"/>
                    </mxGeometry>
                </mxCell>
                <mxCell id="14" style="edgeStyle=none;html=1;" edge="1" parent="1" source="8" target="9">
                    <mxGeometry relative="1" as="geometry"/>
                </mxCell>
                <mxCell id="16" value="&lt;div&gt;Read and Write&lt;/div&gt;[TCP]" style="edgeLabel;html=1;align=center;verticalAlign=middle;resizable=0;points=[];" vertex="1" connectable="0" parent="14">
                    <mxGeometry x="-0.0114" y="2" relative="1" as="geometry">
                        <mxPoint y="13" as="offset"/>
                    </mxGeometry>
                </mxCell>
                <mxCell id="8" value="&lt;b&gt;API Server&lt;/b&gt;&lt;br&gt;&lt;div&gt;[Gin(Go)]&lt;/div&gt;&lt;div&gt;&lt;br&gt;&lt;/div&gt;&lt;div&gt;提供社交系統 API 服務與資料庫訪問&lt;/div&gt;" style="rounded=1;whiteSpace=wrap;html=1;arcSize=12;" parent="1" vertex="1">
                    <mxGeometry x="290" y="440" width="180" height="80" as="geometry"/>
                </mxCell>
                <mxCell id="9" value="&lt;div&gt;&lt;b&gt;Related DB&lt;/b&gt;&lt;/div&gt;[PostgreSQL]&lt;div&gt;&lt;br&gt;&lt;/div&gt;&lt;div&gt;持久化存儲系統服務數據&lt;/div&gt;" style="shape=cylinder3;whiteSpace=wrap;html=1;boundedLbl=1;backgroundOutline=1;size=10.800018310546875;" parent="1" vertex="1">
                    <mxGeometry x="70" y="430" width="120" height="100" as="geometry"/>
                </mxCell>
                <mxCell id="10" value="&lt;b&gt;Social System&lt;/b&gt;&lt;div&gt;[Software Sysstem]&lt;/div&gt;" style="text;html=1;align=center;verticalAlign=middle;whiteSpace=wrap;rounded=0;" parent="1" vertex="1">
                    <mxGeometry x="215" y="250" width="120" height="30" as="geometry"/>
                </mxCell>
                <mxCell id="11" value="&lt;b&gt;LLM API System&lt;/b&gt;&lt;div&gt;[Software System]&lt;/div&gt;&lt;div&gt;&lt;br&gt;&lt;/div&gt;&lt;div&gt;提供語言生成與文本轉向量服務&lt;/div&gt;" style="rounded=1;whiteSpace=wrap;html=1;arcSize=8;" parent="1" vertex="1">
                    <mxGeometry x="590" y="438.75" width="190" height="82.5" as="geometry"/>
                </mxCell>
            </root>
        </mxGraphModel>
    </diagram>
</mxfile>